#N canvas 0 64 3072 1538 12;
#X obj 1229 489 print audio;
#X obj 1067 294 sigmund~ pitch;
#X obj 1133 607 list trim;
#X obj 1294 633 print udp;
#X msg 925 711 disconnect;
#X text 196 445 (band-pass);
#X text 196 428 real output;
#X text 324 428 imaginary output;
#X obj 183 184 noise~;
#X obj 149 484 output~;
#X obj 376 483 output~;
#X text 348 446 (low-pass);
#X text 347 324 argument initializes Q;
#X msg 43 299 clear;
#X obj 93 198 readsf~ 2;
#X msg 26 143 start;
#X msg 11 181 stop;
#X obj 193 324 vcf~ 1, f 20;
#X text 430 458 comment, f 32;
#X obj 855 269 *~ 1000;
#X obj 1187 390 expr if($f1 < 0 \, 0 \, $f1);
#X obj 1073 657 netsend -u;
#X obj 1048 510 list prepend send;
#X floatatom 1063 468 5 0 0 0 - - - 0;
#X obj 1151 440 expr $f1/1000;
#X obj 257 294 sig~ 20000;
#X msg 106 107 open emanuel.wav;
#X msg 770 543 connect 10.42.0.1 3000;
#X connect 1 0 23 0;
#X connect 2 0 21 0;
#X connect 4 0 21 0;
#X connect 13 0 17 0;
#X connect 14 0 19 0;
#X connect 14 0 17 0;
#X connect 15 0 14 0;
#X connect 16 0 14 0;
#X connect 17 0 9 0;
#X connect 17 1 10 0;
#X connect 19 0 1 0;
#X connect 22 0 2 0;
#X connect 22 0 3 0;
#X connect 23 0 22 0;
#X connect 24 0 0 0;
#X connect 25 0 17 1;
#X connect 26 0 14 0;
#X connect 27 0 21 0;
#X coords 0 0 0.5 0.5 0 0 0;
