#N canvas 222 248 2304 1122 10;
#X obj 55 35 netreceive -u -b 8000;
#X obj 55 69 oscparse;
#X obj 51 103 list trim;
#X obj 51 145 route haply /haply;
#X floatatom 116 184 5 0 0 0 x - - 0;
#X floatatom 338 413 5 0 0 0 amp - - 0;
#X obj 87 430 *~;
#X obj 85 469 dac~;
#X obj 48 283 noise~;
#X obj 122 276 line~ 10;
#X obj 240 276 print;
#X obj 88 371 vcf~ 1000 1;
#X obj 120 226 expr ($f1 + 0.1) * 5000;
#X connect 0 0 1 0;
#X connect 1 0 2 0;
#X connect 2 0 3 0;
#X connect 3 0 4 0;
#X connect 3 1 4 0;
#X connect 4 0 12 0;
#X connect 5 0 6 1;
#X connect 6 0 7 0;
#X connect 8 0 11 0;
#X connect 9 0 11 1;
#X connect 11 0 6 0;
#X connect 12 0 9 0;
#X connect 12 0 10 0;
