#N canvas 0 64 3072 1538 12;
#X declare -stdpath ./;
#X declare -stdpath ./;
#X floatatom 261 234 8 0 0 0 - - - 0;
#X floatatom 330 292 5 0 0 0 - - - 0;
#X text 196 445 (band-pass);
#X text 196 428 real output;
#X text 324 428 imaginary output;
#X obj 183 184 noise~;
#X text 374 291 Q;
#X obj 147 493 output~;
#X obj 341 491 output~;
#X obj 267 189 hsl 169 18 200 2000 0 0 empty empty empty -2 -10 0 12 #dfdfdf #000000 #000000 0 1;
#X obj 334 269 hsl 169 18 1 20 0 0 empty empty empty -2 -10 0 12 #dfdfdf #000000 #000000 0 1;
#X obj 261 265 sig~ 200;
#X text 348 446 (low-pass);
#X text 347 324 argument initializes Q;
#X msg 43 299 clear;
#X text 329 234 <-- resonant frequency;
#X obj 446 68 oscparse;
#X obj 442 102 list trim;
#X floatatom 492 172 5 -0.05 -0.01 0 x - - 0;
#X obj 442 144 route haply /haply;
#X obj 535 340 print;
#X obj 193 324 vcf~ 1, f 20;
#X obj 447 38 netreceive -u -b 5000;
#X obj 448 214 expr abs($f1) * 50000 + 400;
#X obj 600 345 -~ 0.5;
#X obj 596 383 *~ 0.5;
#X obj 677 347 *~;
#X obj 683 388 +~ 1;
#X obj 595 427 cos~;
#X obj 591 469 *~;
#X obj 564 694 output~;
#X obj 827 206 hsl 169 18 200 2000 0 0 empty empty empty -2 -10 0 12 #dfdfdf #000000 #000000 0 1;
#X obj 792 315 * 44.1;
#X floatatom 820 254 5 0 0 0 - - - 0;
#X obj 677 436 tabread4~ table18;
#X obj 909 614 loadbang;
#X obj 910 672 soundfiler;
#X obj 908 418 adc~ 1;
#X obj 908 523 tabwrite~ table18;
#X text 946 468 <-- click here to record to table, f 17;
#X obj 923 467 bng 19 250 50 0 empty empty empty 17 7 0 10 #dfdfdf #000000 #000000;
#N canvas 0 0 450 300 (subpatch) 0;
#X array cos-output 22050 float 2;
#X coords 0 1.02 22050 -1.02 200 130 1;
#X restore 1072 246 graph;
#N canvas 0 0 450 300 (subpatch) 0;
#X array table18 44103 float 2;
#X coords 0 1.02 44103 -1.02 200 130 1;
#X restore 1089 49 graph;
#X text 1095 209 -- 44103 samples ---;
#X text 1086 386 ----- 0.5 second ------;
#X obj 783 572 bng 19 250 50 0 empty empty empty 17 7 0 10 #dfdfdf #000000 #000000;
#X text 806 571 <-- graph once;
#X obj 810 599 tgl 19 0 empty empty empty 0 -10 0 12 #dfdfdf #000000 #000000 0 1;
#X text 834 598 <-- graph repeatedly, f 10;
#N canvas 146 130 450 300 graph 0;
#X obj 256 73 inlet;
#X obj 192 73 inlet;
#X obj 122 73 inlet~;
#X obj 256 137 metro 550;
#X obj 192 203 tabwrite~ cos-output;
#X connect 0 0 3 0;
#X connect 1 0 4 0;
#X connect 2 0 4 0;
#X connect 3 0 4 0;
#X restore 757 632 pd graph;
#N canvas 0 0 450 300 (subpatch) 0;
#X array pitchmod14 131 float 1;
#A 0 0.0862958 0.0745263 -0.352998 -0.360843 -0.376533 -0.392223 -0.392223 -0.392223 -0.400068 -0.407913 -0.407913 0.604083 0.619772 0.619772 0.345231 0.335425 0.325618 0.315812 0.306006 0.296592 0.287178 0.277764 0.26835 0.258937 0.247954 0.236971 0.225988 0.215005 0.204022 0.19147 0.178918 0.166366 0.153815 0.141263 0.13211 0.122958 0.113805 0.104653 0.0955006 0.0863482 0.0745808 0.0628135 0.0510461 0.0392787 0.0275113 0.0157439 0.00319203 -0.00935985 -0.0219117 -0.0344636 -0.0470155 -0.0561679 -0.0653203 -0.0744727 -0.0836251 -0.0927776 -0.10193 -0.111344 -0.120758 -0.130172 -0.139586 -0.149 -0.156844 -0.164689 -0.172534 -0.180379 -0.188224 -0.194108 -0.392192 -0.384347 -0.368657 -0.345123 -0.329433 -0.313743 -0.298053 -0.274518 -0.266673 -0.258828 -0.247061 -0.235294 -0.211759 -0.199992 -0.188224 -0.172534 -0.156844 -0.125465 -0.113697 -0.10193 -0.0783952 -0.0548604 -0.0470155 -0.0234807 0.564901 0.549211 0.549211 0.533521 0.502142 0.502142 0.486452 -0.611881 -0.611881 -0.611881 -0.611881 -0.611881 -0.611881 -0.611881 -0.611881 -0.611881 -0.611881 -0.611881 -0.596191 -0.596191 -0.564811 -0.564811 -0.533432 0.815889 0.815889 0.8002 0.78451 0.76882 0.760975 0.729595 0.698215 0.666836 -0.784615 -0.784615 -0.784615 -0.784615 -0.784615 -0.784615 -0.784615;
#X coords 0 1.02 130 -1.02 258 130 1 0 0;
#X restore 1599 834 graph;
#X floatatom 1395 688 6 0 0 0 - \$0-mod - 0;
#X floatatom 1341 758 5 0 0 0 - \$0-carrier - 0;
#X obj 1395 801 *~;
#X floatatom 1413 769 6 0 0 0 - \$0-index - 0;
#X obj 1377 832 +~;
#X obj 1377 864 osc~;
#X obj 1395 729 tabosc4~ pitchmod14;
#X obj 1365 918 output~;
#X text 1591 703 This [tabosc4~] controls the pitch of a sinusoidal oscillator ([osc~]). Try changing the waveform as well as the three familiar parameters., f 37;
#X text 1278 761 carrier frequency, f 9;
#X text 1446 681 modulation frequency, f 10;
#N canvas 1002 256 344 383 init 0;
#X obj 104 112 loadbang;
#X text 62 37 This subpatch initializes the patch and loads values into the number boxes, f 26;
#X msg 104 220 \; \$1-carrier 220 \; \$1-mod 5 \; \$1-index 50;
#X obj 104 182 f \$0;
#X obj 104 146 bng 19 250 50 0 empty empty empty 0 -10 0 12 #dfdfdf #000000 #000000;
#X obj 102 318 declare -stdpath ./;
#X connect 0 0 4 0;
#X connect 3 0 2 0;
#X connect 4 0 3 0;
#X restore 1285 923 pd init;
#X text 1464 763 modulation index, f 10;
#X obj 604 303 phasor~;
#X obj 1485 301 output~;
#X obj 1490 253 +~;
#X obj 1490 185 +~;
#X obj 1615 180 +~;
#X obj 1615 122 osc~ 440;
#X obj 1490 122 osc~ 330;
#X obj 1508 153 osc~ 330.2;
#X obj 1633 153 osc~ 440.33;
#X obj 1750 177 +~;
#X obj 1750 122 osc~ 587;
#X obj 1768 153 osc~ 587.25;
#X obj 1490 222 +~;
#X obj 1658 306 declare -stdpath ./;
#X floatatom 588 264 6 0 0 0 - \$0-mod - 0;
#X text 725 179 modulation frequency, f 10;
#X obj 649 258 expr abs($f1) * 5000;
#X msg 909 639 read ../ws/AA_pd/silvia.wav table18;
#X connect 0 0 11 0;
#X connect 1 0 21 2;
#X connect 5 0 21 0;
#X connect 9 0 0 0;
#X connect 10 0 1 0;
#X connect 11 0 21 1;
#X connect 14 0 21 0;
#X connect 16 0 17 0;
#X connect 17 0 19 0;
#X connect 18 0 23 0;
#X connect 18 0 80 0;
#X connect 19 0 18 0;
#X connect 19 1 18 0;
#X connect 21 0 7 0;
#X connect 21 1 8 0;
#X connect 22 0 16 0;
#X connect 23 0 0 0;
#X connect 23 0 20 0;
#X connect 24 0 25 0;
#X connect 25 0 28 0;
#X connect 26 0 27 0;
#X connect 27 0 34 0;
#X connect 28 0 29 0;
#X connect 29 0 30 0;
#X connect 29 0 49 0;
#X connect 31 0 33 0;
#X connect 32 0 26 1;
#X connect 33 0 32 0;
#X connect 34 0 29 1;
#X connect 35 0 81 0;
#X connect 37 0 38 0;
#X connect 40 0 38 0;
#X connect 45 0 49 1;
#X connect 47 0 49 2;
#X connect 51 0 57 0;
#X connect 52 0 55 0;
#X connect 53 0 55 1;
#X connect 54 0 53 1;
#X connect 55 0 56 0;
#X connect 56 0 58 0;
#X connect 57 0 53 0;
#X connect 64 0 24 0;
#X connect 64 0 26 0;
#X connect 66 0 65 0;
#X connect 67 0 76 0;
#X connect 68 0 76 1;
#X connect 69 0 68 0;
#X connect 70 0 67 0;
#X connect 71 0 67 1;
#X connect 72 0 68 1;
#X connect 73 0 66 1;
#X connect 74 0 73 0;
#X connect 75 0 73 1;
#X connect 76 0 66 0;
#X connect 78 0 64 0;
#X connect 80 0 64 0;
#X connect 80 0 57 0;
#X connect 81 0 36 0;
#X coords 0 0 0.5 0.5 0 0 0;
